<svg xmlns="http://www.w3.org/2000/svg" data-name="<Layer>" viewBox="0 0 2742 1828" id="businessman-is-talking-on-phone"><g><path fill="#575b66" fill-rule="evenodd" d="M1127.33 1351.39l390.84 34.06 7.34 49.57-401.23-37.7zM1122.63 1473.19l410.07 39.19 7.62 181.44s-121.34-3.36-224-13-186.67-25.63-186.67-25.63-3.27-58-5.18-100.38S1122.63 1473.19 1122.63 1473.19z"></path><path fill="#fff" fill-rule="evenodd" d="M1041.43,1067c0-6.22,4.66-11.27,9.66-20.49a307.35,307.35,0,0,0,21.51-50c11.12-34.77,20.8-77.25,27.72-114,5.51-29.23,8.46-54.2,14.8-73.29,6.51-19.62,18.8-37.65,35.63-47.83,22.46-13.57,52.19-16.14,77.52-21.26,11.1-2.24,20.67-7.07,29.57-10,3.91-1.28,4.57-5.89,7.27-9,3-3.43,8-5.31,12.93-5.31,45.24,0,190.55,22.72,190.55,22.72s18.94,9.39,26,11.5c29.81,8.94,61.38,13.64,84.06,29.27,12.17,8.4,24.89,33.61,32,53.88,15.73,44.8,16.56,96.73,23.76,123.48,1.68,6.26,5.24,23.94,10.26,43.07,8.76,33.38,20.39,77.47,22.92,118.2,2.38,38.38-11.13,71-17,81a173.76,173.76,0,0,0-8.9,16.44c-4.65,10.17-9.68,21.72-20,26.61-7.08,3.36-15.51,3.68-24.82,0-6.22-2.43-14-8.14-17.79-10.3a130.64,130.64,0,0,1-39.18-34.12,230.52,230.52,0,0,1-20.09-31.58s-5.67,28.79-9.6,57.42-5.25,59-5.25,59l1.76,27.76,6,41.39,5.38,35s-38.45,17.52-90,24.19a513.49,513.49,0,0,1-88.46,3.5c-20.39-1.1-37.38-4.78-55.94-6.46-44.07-4-86.1-18.22-112.34-30.14-31.82-14.47-43.26-26.64-43.26-26.64s2.16-26.07,5.34-56c3-28.62,7.05-60.43,8.79-89.14,3.54-58.71,0-89.75,0-89.75s-9.12,13.82-19.92,22.59a76.32,76.32,0,0,1-23.28,12.5,401.9,401.9,0,0,1-57.48,14.59c-31.89,5.57-72.84,7.82-72.84,7.82l-46.22-87.67s18-1,36.45-3.76c20.56-3.11,45.48-8.85,62.57-11.9C1032,1068.55,1041.43,1068.05,1041.43,1067Z"></path><path fill="#e7b890" fill-rule="evenodd" d="M1248.7,441.9c15.79-16.51,25.94-29.51,43.23-32.38,10.15-1.87,24.14-6.85,55.16-6.53,25.73.35,55.14,10.46,63.1,18.32,9.12,8,20.74,3.34,34.68,21.2s17,22.28,27.32,46.79c5.68,12.9,9.77,18.6,8.9,32.57-1.46,13.9-15.54,25.32-15.54,25.32s0,5.85-10.75,29.92a332.2,332.2,0,0,1-22.57,42.15l-187.39-56.51S1227.72,541.62,1222,524s-2.73-24.3-2.73-24.3l-19.7-2.06a43.34,43.34,0,0,0,18.26-12.15C1229.79,471.55,1242.12,448.82,1248.7,441.9Z"></path><path fill="#ffe4ce" fill-rule="evenodd" d="M1297.13,712.32s-16,1.84-27.94-12.88c-10.89-13.45-23.56-43.47-31-62.4s-.12-49.22.15-57.4c.81-24.51-2.37-38.9.45-49.15.83-2.26.86-8.12,8.68-21.35,8.41-13.18,14-16.11,19.45-17.88,22.53-8.19,44.12-1.83,49.31,4.57C1321,501,1330.56,516.07,1341,523a103.37,103.37,0,0,0,25.68,12.06A262.51,262.51,0,0,1,1391,565.16c5.13,7,10.09,38,10.09,38l17-17a78.61,78.61,0,0,1,14.91-1.47c15.12,1,13.83,15.5,13.81,21.35-.77,29.8-27.34,34.15-27.34,34.15s-25.44,31.29-56,49.32S1297.13,712.32,1297.13,712.32Z"></path><path fill="#ffe4ce" fill-rule="evenodd" d="M1269.21,746.44s5.2-8.54,6.67-16.13,2.8-24.14,2.8-24.14l85.88-25.61L1338.33,726l3.4,10.88,47.21,15.33,22.3,28.49-48.55-4.28s-22.27,10.4-27.2,13.6S1311,804.71,1311,804.71l-3.86,5.74s-3.21-7.07-5.21-12.27-4.27-10.8-6.39-14-13.21-16.94-16-20.8S1269.21,746.44,1269.21,746.44Z"></path><path fill="#575b66" fill-rule="evenodd" d="M1342.46,737.48l-4.2-5.74-1.3-6,70.15-117.66,6-5,7.55-.82,70.25,14.24,4.27,7.38-3.9,10.12-36.18,68.17-54.1,55.5Z"></path><path fill="#ffe4ce" fill-rule="evenodd" d="M1453.7,890.67s-18.67-20-21.06-23.53-12.76-18.77-15.31-23.78-11.36-18.4-14.9-24.84-15-24.14-18.79-28a65.14,65.14,0,0,0-14.52-10.94,146.37,146.37,0,0,0-18.72-7.12,79.59,79.59,0,0,1-12.55-4.86c-3.76-1.83-4.8-3.76-7.56-7.56s-1.3-6.15,2.36-6.86,11.46.71,14.52.74,8.21.54,12.28.47,7.38-.91,12.36,1.3,5.91,3,10.86,6.55,7.15,6.93,11.26,8.9a84.7,84.7,0,0,0,10.06,3.74s-5.47-8.79-9.24-14.19-8-13.13-13.22-18.21a201,201,0,0,0-18.68-15.11c-4.39-3.12-11.08-7-14.95-10.05s-6.78-4.93-8.88-9-3-5.82-.8-7.9,8.8-.38,11.93.33,10.92,3.82,16.52,5.47a115.06,115.06,0,0,1,16.46,6.5,32.56,32.56,0,0,1,12.31,9.29c3.1,3.77,8,12.28,12.41,16.93a139.26,139.26,0,0,0,12.49,11s-2.72-10.31-5.52-14.45-8.47-10.89-13-13.82-7.23-7.71-12-9.44-13.8-5.41-19.08-7.25-13.44-5.28-17.11-8-5.91-3-6.67-7.14,4.11-4.83,7.35-4.65,15,.86,21.82,2.39,16.07,4.33,21.67,6a93,93,0,0,1,18.09,7.52c4.69,2.76,7.17,5.4,11.54,10s9.78,11.08,9.78,11.08-2.68-13.15-5.21-18-6.21-12.8-9.18-18.62-9.61-16.19-12.24-22-5.12-10.36-6.73-16.31-4-5.55-2.37-11.66,1.64-7.3,5-6.11,6.77,6.46,8.85,10.32,7.77,13,10.21,17,10.59,15.75,13.8,20.69,12.52,19.64,15.06,24.66,9.92,22.61,13.31,32.63,11.49,38.27,14.21,48.36,6.9,28,8.83,37.17,4.27,18.77,5.77,23.54,4.64,17.38,4.64,17.38a113,113,0,0,0-11.4,10,49.15,49.15,0,0,1-13.75,10.22c-4.69,2.34-11,5.18-13.64,6.29S1453.7,890.67,1453.7,890.67Z"></path><path fill="#d66351" fill-rule="evenodd" d="M663,889.75l147.9,278.8,4.92,8.81,7,3.56L977,1230.84l5.31-1.48,7.53-15.16-149-282.34-6.25-6.69-6-1.07L678.19,875.05l-8.68,1.16-6.85,6.5Z"></path><path fill="#ffe4ce" fill-rule="evenodd" d="M748.42,1047.17l7.72,13.19s8.53,3.57,11.7,4.56,6.74,3.37,9.12,4.56,4.66,4.75,5.35,6.54.4,4.66,2.78,5.85,7.23,3.07,10,5.05,5.25,3.27,6.44,6.14,1.49,3.68-1.09,5-1,2.68,1.09,4.66,3.67,6,2.78,7.73-2.58,3.17-.4,5.36,4.46,2.28,5.06,5.94-2.68,8.53-6.94,10.81-12.69,3.76-19.23,5.35-10.31.6-15,.3-6.34-4.07-8.22-8.63a71.07,71.07,0,0,1-3.18-11.3,61.85,61.85,0,0,0-4-4.86c-2.18-2.37-2.78-4.55-2-7a25.73,25.73,0,0,1,2.08-4.66s-4.8-1.89-6.45-4-3.46-5.69-3.31-8.64,7.12-9.43,7.12-9.43-8.06-4.1-9.93-5.54-5-5-5.54-7.49-1.3-3.81.5-6.76,4.68-4.32,5.61-5.83,3.6-3.46,4.39-4.32A25.92,25.92,0,0,1,748.42,1047.17Z"></path><path fill="#ce6658" fill-rule="evenodd" d="M1294,806.74c7.1,2,21.81-1.49,27.32,3.21,7,5.95-3.14,25.33-3.91,33.42-.27,2.79-.58,8.18-3.23,9.9-2.93,1.92-8,.47-11.18.17-4.64-.45-10.57-.25-14.56-3-6.45-4.52-1.49-23.31-1.07-29.85C1287.57,817.09,1287.37,804.84,1294,806.74Z"></path><path fill="#ce6658" fill-rule="evenodd" d="M1290.36 852.57a196 196 0 00-6.93 28.2c-2.77 18-37.91 342.55-37.91 447 0 15.75 22.19 49.47 25.89 50.4s28.43-42.68 28.66-51.32c2.31-87.37 10.54-405 11.93-444.74.36-10.33-1.6-27.92-1.6-27.92zM1287.38 819.29s-7-9-8.93-12.23-7.34-14.31-7.34-14.31l13.45-9.45s2.2 7.34 4.29 11.12 9.36 14.38 9.36 14.38zM1317.68 809.52a21.07 21.07 0 006.7-5.75l5.65-7.64 9.13 3.41 4.9 8.55s-4.61 7.88-8.22 11-13.25 6.91-13.25 6.91z"></path><path fill="#fff" fill-rule="evenodd" d="M954.39,481.37c0-39.61,49.33-71.73,110.17-71.73s110.17,32.12,110.17,71.73c0,23.87-17.89,45-45.42,58-5.09,2.41,3.47,18.31,22,34.61,3.52,3.09-15.14-4.76-32-13-8.89-4.34-19.52-11.68-21.32-11.31a164.7,164.7,0,0,1-33.44,3.37C1003.72,553.11,954.39,521,954.39,481.37Z"></path><path fill="#571519" d="M1151.94,578c-3.35,0-11.47-2.87-34.12-13.91-4-2-8.27-4.45-12-6.65-2.85-1.67-6.34-3.72-7.71-4.25a169.14,169.14,0,0,1-33.52,3.3c-62.63,0-113.59-33.71-113.59-75.16s51-75.16,113.59-75.16,113.6,33.72,113.6,75.16c0,24.1-17.52,46.84-46.89,60.91,0,3,5.92,14.76,22.34,29.18,2.7,2.36,1.19,4.81,1,5.08A2.71,2.71,0,0,1,1151.94,578Zm-53.77-31.74c2,0,4.55,1.43,11.09,5.26,3.65,2.14,7.79,4.56,11.57,6.41,6.48,3.16,12.51,5.92,17.49,8.1-9.18-10.1-14.57-19.58-13.81-25a5.93,5.93,0,0,1,3.33-4.71c27.22-12.89,43.47-33.43,43.47-55,0-37.66-47.89-68.3-106.75-68.3s-106.74,30.64-106.74,68.3,47.89,68.31,106.74,68.31a162.05,162.05,0,0,0,32.75-3.29A4,4,0,0,1,1098.17,546.3Zm.53,6.8h0Z"></path></g><g data-name="Ñëîé 2"><path fill="#571519" d="M1346.8 702a3.43 3.43 0 01-1.41-6.56l3-1.37a3.43 3.43 0 112.88 6.22l-3.1 1.41A3.45 3.45 0 011346.8 702zM1293.78 715.45a40.88 40.88 0 01-10.92-1.23c-11.87-3.17-26.5-19.58-37.2-41.8-7.68-16.24-13.26-37.07-14.24-53.1-.67-8.92.35-18.7 1.43-29 .52-5 1.05-10 1.38-15 .71-6.79.19-15.41-.27-23-.19-3.26-.38-6.32-.45-9-.09-4.44.1-43.6 33.57-57.94a3.43 3.43 0 012.7 6.3c-23.83 10.21-29.71 37.16-29.42 51.48.07 2.54.25 5.53.44 8.71.48 7.86 1 16.78.26 24-.32 5-.86 10.1-1.39 15.17-1.05 10-2 19.51-1.41 27.86.93 15.28 6.26 35.13 13.59 50.62 9.55 19.84 23.06 35.53 32.84 38.14 6 1.72 22.82 2.14 48.21-7.1a3.43 3.43 0 112.35 6.44C1318 713.24 1303.72 715.45 1293.78 715.45z"></path><path fill="#571519" d="M1286.61,626.33a3.44,3.44,0,0,1-1.84-.53c-1.31-.84-12.74-8.44-11.7-18.37.46-4.43,3.17-6.78,5.55-8.85,2.54-2.21,4.94-4.29,5.75-9.47.3-3-.41-8.43-2.2-16.54a3.43,3.43,0,1,1,6.69-1.48c2,9,2.71,15,2.3,18.9-1.21,7.83-5.16,11.26-8,13.76-2.06,1.79-3.06,2.73-3.23,4.39-.52,4.9,6.18,10.35,8.56,11.88a3.42,3.42,0,0,1-1.84,6.31Z"></path><path fill="#571519" fill-rule="evenodd" d="M1251.22,582.74c.66-6.38,3.28-4.7,7.92-4.22,4,.43,8.51-1.68,7.78,5.27-.66,6.38-4.17,11.87-8.8,11.38C1254.06,594.75,1250.55,589.11,1251.22,582.74Z"></path><path fill="#571519" d="M1275.18 545a3.46 3.46 0 01-1.8-.51c-12.85-7.93-23.41-2.42-23.85-2.18a3.43 3.43 0 01-3.31-6c.59-.32 14.38-7.75 30.76 2.35a3.43 3.43 0 01-1.8 6.35zM1262.15 582.82c-5.3 0-11.13-2.07-17.44-6.2a3.42 3.42 0 113.75-5.73c7.88 5.15 14.43 6.36 19.49 3.61a3.43 3.43 0 013.28 6A18.76 18.76 0 011262.15 582.82z"></path><path fill="#571519" fill-rule="evenodd" d="M1338.77,591.32c.67-6.38-2.83-2.44-7.4-3.51-4.64-.48-8.62-5.78-9.34,1.17-.67,6.37,2.26,11.95,6.84,13C1332.92,602.42,1337.52,597.63,1338.77,591.32Z"></path><path fill="#571519" d="M1356.63 555.84a3.36 3.36 0 01-1.84-.54c-.22-.13-21.56-13.54-34.5-6.75a3.43 3.43 0 01-3.19-6.07c16.45-8.64 40.37 6.4 41.38 7a3.43 3.43 0 01-1.85 6.32zM1335.76 591.47c-7.19 0-14.75-2.7-18.71-6.15a3.43 3.43 0 014.51-5.17c3.85 3.36 16 6.78 21.82 2.47a3.42 3.42 0 014.08 5.5C1344.27 590.49 1340.08 591.47 1335.76 591.47zM1446.59 609.45a3.58 3.58 0 01-.85-.1 3.43 3.43 0 01-2.48-4.17c1.45-5.73.48-10.17-2.89-13.18-4.75-4.26-13.68-5.13-21.68-2.12a3.43 3.43 0 11-2.41-6.42c10.46-3.92 22-2.55 28.67 3.43 5.26 4.71 7 11.81 5 20A3.41 3.41 0 011446.59 609.45zM1212.43 504.92a34.27 34.27 0 01-18.29-5.39 3.43 3.43 0 012.32-6.21c.57.07 15 .9 29.16-23.06 15.05-25 31.7-50.22 55.21-60.23 28.68-12.32 87.63-14.84 115.52-.23 9 4.72 14.33 10.88 15.83 18.3a3.43 3.43 0 01-6.72 1.36c-1.07-5.3-5.21-9.87-12.29-13.58-25.88-13.56-82.87-11.05-109.65.45-21.63 9.22-37.56 33.43-52 57.45-8.36 14.13-17.19 20.74-24 23.8a25 25 0 0010.26-.1 3.43 3.43 0 011.47 6.7A31.8 31.8 0 011212.43 504.92z"></path><path fill="#571519" d="M1381.13 539c-9.4 0-21.13-1.2-31.21-5.88-17.29-7.85-25.58-20.86-33.22-34.63-.86-1.35-1.82-3-2.8-4.64-3.68-6.27-7.85-13.37-12.27-13.74-3.24-.29-7.05 3.31-9.63 6.37a3.42 3.42 0 11-5.24-4.41c5.33-6.34 10.4-9.22 15.44-8.79 8 .66 13.09 9.39 17.61 17.09.94 1.59 1.86 3.16 2.78 4.62 7.16 12.9 14.78 24.9 30.19 31.9 7.63 3.54 16.54 4.84 24.37 5.15a62.65 62.65 0 01-30.51-29.37 3.43 3.43 0 016.13-3.07c14.46 28.83 44.94 31.25 45.25 31.27a3.43 3.43 0 01.37 6.79A107.31 107.31 0 011381.13 539zM1237.94 564.87a3.42 3.42 0 01-3.36-2.81c-1.09-5.94-4.56-11.59-8.23-17.58-8.3-13.54-17.7-28.88-5.3-54a3.43 3.43 0 016.15 3c-10.73 21.68-2.74 34.73 5 47.34 4 6.55 7.8 12.73 9.12 19.92a3.43 3.43 0 01-2.75 4A3.36 3.36 0 011237.94 564.87z"></path><path fill="#571519" d="M1408.76,572.79a3.43,3.43,0,0,1-2.8-1.45c-4.48-6.3-9.79-8.87-15.93-11.84-8.25-4-17.6-8.52-26.83-22.6a3.43,3.43,0,0,1,5.74-3.76c8.18,12.5,16.26,16.41,24.07,20.19,6.41,3.1,13,6.31,18.54,14a3.44,3.44,0,0,1-2.79,5.42Z"></path><path fill="#571519" d="M1398.1 607.4a3.44 3.44 0 01-3.37-4.07c0-.19 3.51-19.08-4.15-32.71a3.43 3.43 0 116-3.36c5.94 10.57 6.22 23.26 5.69 30.81 4-2.76 9.1-8.11 10.73-17.94a3.43 3.43 0 116.76 1.13c-3.47 20.9-20 25.82-20.7 26A3.26 3.26 0 011398.1 607.4zM1382.12 498.88c-24.27 0-38.29-17.39-49.73-31.57-6.18-7.66-11.52-14.28-17-16.26-14.1-4.89-26.22 15.07-26.33 15.27a3.43 3.43 0 11-5.89-3.52c.61-1 15.14-24.94 34.52-18.2 7.27 2.64 13.16 9.95 20 18.41 11.9 14.74 25.38 31.46 49.71 28.7a3.43 3.43 0 11.77 6.81A53.35 53.35 0 011382.12 498.88zM1267.5 467.21a3.43 3.43 0 01-3.3-2.52c-2.14-7.78-1.14-14.85 3-21 9.88-14.88 33.72-18.37 36.41-18.72a3.42 3.42 0 11.88 6.79c-8.59 1.12-24.92 5.69-31.59 15.73-3 4.49-3.66 9.53-2 15.39a3.43 3.43 0 01-2.4 4.22A3.56 3.56 0 011267.5 467.21zM1447 593.78a3.43 3.43 0 01-2.78-5.43c7.52-10.46 16.89-31.43 18.19-43.84a3.49 3.49 0 013.77-3 3.42 3.42 0 013 3.76c-1.45 13.85-11.41 35.95-19.44 47.13A3.45 3.45 0 011447 593.78z"></path><path fill="#571519" d="M1458.51 556.32a3.42 3.42 0 01-3.07-5c.1-.22 11-22.59 2.11-38.8a3.42 3.42 0 116-3.28c6.09 11.15 4.68 24.07 2.29 33.23 6.85-7 14.31-18.4 9.82-32.74-13.1-43.81-28.53-68.33-47.21-75a3.43 3.43 0 112.32-6.45c20.86 7.46 37.69 33.45 51.45 79.45 9 28.83-21.63 47.86-21.94 48.05A3.47 3.47 0 011458.51 556.32zM1452.37 892.44a3.43 3.43 0 01-2.28-.87c-17.38-15.53-29.53-36.47-41.28-56.73-9.15-15.79-17.8-30.7-28.68-43.17-7.69-8.83-16.32-11.55-26.31-14.7a114.18 114.18 0 01-16.59-6.23c-2.34-1.15-10.82-7.11-11.36-13.15a6.67 6.67 0 012.86-6.15c4.59-3.39 11.57-2.15 17.17-1.17a43.48 43.48 0 004.48.66c1.77.12 3.7.17 5.71.23 6.65.18 14.18.39 20 3 5 2.22 9.25 5.64 13.39 9 5.83 4.66 11.35 9.06 18.24 9.94a3.43 3.43 0 01-.87 6.8c-8.8-1.12-15.33-6.34-21.65-11.39-4-3.18-7.75-6.19-11.91-8.06-4.61-2.06-11.42-2.24-17.43-2.41-2.1 0-4.13-.11-6-.24-1.46-.1-3.25-.41-5.19-.75-4.1-.72-9.7-1.7-11.93-.06-.18 1.57 4.72 6.29 7.46 7.62a109.92 109.92 0 0015.63 5.85c10.52 3.32 20.45 6.46 29.41 16.73 11.32 13 20.54 28.87 29.46 44.24 11.47 19.79 23.34 40.26 39.91 55.06a3.43 3.43 0 01-2.29 6z"></path><path fill="#571519" d="M1403.41,777.55a3.43,3.43,0,0,1-3-1.67c-14.22-23.86-25-37.64-47.84-51.43-13.35-8.05-19.49-15.24-18.78-22a6.66,6.66,0,0,1,3.24-5.2c5.07-3,14.07.42,22.85,4.16.94.4,1.7.72,2.21.92,1.63.61,3.46,1.24,5.41,1.92,9.49,3.3,21.31,7.41,27.5,14.26,2.87,3.18,5.64,6.54,8.43,9.92,7,8.47,14.2,17.23,23.34,23.08a3.42,3.42,0,0,1-3.69,5.77c-10.05-6.43-17.62-15.61-24.94-24.49-2.72-3.3-5.42-6.58-8.23-9.68-5-5.55-15.91-9.34-24.66-12.38-2-.7-3.89-1.36-5.57-2-.57-.21-1.43-.57-2.48-1-12.42-5.29-15.79-5.13-16.69-4.56,0,1.34.66,6.36,15.61,15.38,24.07,14.53,35.36,28.92,50.18,53.78a3.42,3.42,0,0,1-1.19,4.7A3.37,3.37,0,0,1,1403.41,777.55Z"></path><path fill="#571519" d="M1423.29,755.34a3.44,3.44,0,0,1-3.22-2.24c-6.86-18.7-21.22-30.88-32-37.81-2.6-1.67-7.86-3.42-13.43-5.28-13.53-4.5-28.85-9.61-30.75-20.1a5.44,5.44,0,0,1,1.05-4.37c1.92-2.46,5.54-3,9.16-3.28,7.91-.58,15.58,1.22,23,3,2.39.57,4.75,1.12,7,1.57,35.31,7,49.9,22.26,67.51,51.77a3.44,3.44,0,0,1-5.9,3.52c-16.88-28.32-30-42.05-62.94-48.56-2.36-.47-4.8-1-7.27-1.63-6.92-1.62-14.07-3.3-20.57-2.83a21.92,21.92,0,0,0-4.07.54c2.3,6,15.87,10.55,25.9,13.9,6.26,2.08,11.65,3.88,15,6,16.8,10.76,28.83,25,34.79,41.22a3.43,3.43,0,0,1-2,4.4A3.23,3.23,0,0,1,1423.29,755.34Z"></path><path fill="#571519" d="M1501.3 864.2a3.45 3.45 0 01-3.3-2.48c-4.7-16.25-8.77-33.65-12.71-50.48-10.91-46.66-22.2-94.9-49.14-132.55a415.29 415.29 0 01-25.13-39.8 20 20 0 00-5.15-5.68c-3 5.77 2.81 17.88 5.32 23.13 3.43 7.16 7.21 14 10.85 20.69 7.36 13.43 15 27.31 19.64 43.41a3.43 3.43 0 01-6.59 1.91c-4.45-15.38-11.55-28.32-19.06-42-3.69-6.74-7.51-13.7-11-21-3.61-7.54-10.33-21.58-4.61-30.31a6 6 0 015.26-2.84c6 .21 11.29 9.3 11.35 9.39a406.93 406.93 0 0024.72 39.15c27.73 38.75 39.17 87.67 50.24 135 4.09 17.51 8 34.05 12.62 50.14a3.42 3.42 0 01-2.34 4.24A3.52 3.52 0 011501.3 864.2zM1272.91 745.82a3.43 3.43 0 01-3.21-4.64c4.33-11.48 5.73-17.6 5.46-31.2a3.43 3.43 0 013.36-3.5 3.59 3.59 0 013.49 3.37c.27 13.51-1 20.77-5.89 33.75A3.43 3.43 0 011272.91 745.82zM1312.14 807.94a3.43 3.43 0 01-2.13-6.12 91.72 91.72 0 0114.17-8.67c2.38-1.26 4.76-2.52 7.06-3.88 8.31-4.93 17.13-9.33 25.65-13.59l1.54-.77a3.43 3.43 0 113.07 6.13l-1.55.77c-8.41 4.21-17.12 8.55-25.21 13.36-2.4 1.42-4.87 2.73-7.35 4a84.22 84.22 0 00-13.12 8A3.42 3.42 0 011312.14 807.94z"></path><path fill="#571519" d="M1303.72,807.15a3.43,3.43,0,0,1-3.15-2.06c-1.15-2.65-2.37-5.85-3.46-8.72-1-2.62-2.24-5.87-2.67-6.57a170.72,170.72,0,0,0-10.33-13.94c-12.71-16-27.12-34.15-11.92-56.11a3.43,3.43,0,0,1,5.64,3.91c-12.31,17.77-1.21,31.75,11.65,47.94a178.91,178.91,0,0,1,10.75,14.53,56.51,56.51,0,0,1,3.28,7.79c1.06,2.78,2.24,5.88,3.35,8.44a3.44,3.44,0,0,1-1.78,4.51A3.49,3.49,0,0,1,1303.72,807.15Z"></path><path fill="#571519" d="M1250.05 817.77a5.24 5.24 0 01-.9-.11 3.48 3.48 0 01-2.54-2c-1.83-4.06-.52-11.05.75-17.82a58.71 58.71 0 001.2-8.19c0-1.51 0-3.29 0-5.27-.13-22.66-.4-69.83 28.17-72.78a3.43 3.43 0 11.71 6.82c-22.39 2.31-22.15 45.28-22 65.93 0 2 0 3.81 0 5.36a59.81 59.81 0 01-1.33 9.4c-.39 2.11-.92 4.91-1.24 7.47l3.82-3.89c1.64-1.68 2.93-3 3.29-3.32 1.85-1.72 3.68-3.71 5.61-5.81 7.53-8.22 16.9-18.44 30.33-10.65a3.43 3.43 0 01-3.44 5.93c-8.24-4.78-13.67.43-21.84 9.35-1.94 2.11-3.94 4.3-6 6.21-.33.31-1.52 1.53-3 3.08C1252.91 816.37 1251.54 817.77 1250.05 817.77zM1356.4 839.51a3.62 3.62 0 01-2.25-.78c-4.69-3.82-7-11-9.34-18.62-4.71-15-8-21.75-17.83-18.9a3.43 3.43 0 01-1.92-6.59c17.36-5.06 22.52 11.42 26.29 23.44 1.4 4.47 2.84 9.05 4.66 12.23.46-.87 1-1.9 1.59-3.1.38-.74.65-1.28.75-1.45a130.16 130.16 0 018.16-11.92c1.48-2 3-4 4.36-6a158.18 158.18 0 0110.81-13.73 3.43 3.43 0 115.17 4.5 149.38 149.38 0 00-10.34 13.13c-1.45 2.1-3 4.15-4.5 6.2a123.16 123.16 0 00-7.72 11.25l-.57 1.12c-3.85 7.63-4.65 8.74-6.61 9.16A3.35 3.35 0 011356.4 839.51z"></path><path fill="#571519" d="M1081.65 1124.1a3.43 3.43 0 01-3.39-2.95c-1.7-12.18-14.14-25.94-23.23-36l-3.33-3.71c-.41-.46-1.59-1.49-3-2.79-9.08-8.11-11-10.42-10.85-13 .24-4.08 3.55-9.18 6.76-14.11a56 56 0 003.77-6.28l.2-.43c8.79-19.37 17.89-39.41 24.6-59.93 9.81-30 15.66-59.65 21.84-91 1.36-6.88 2.72-13.79 4.13-20.72 1.53-7.53 2.75-15.15 3.92-22.51 4.55-28.44 8.84-55.3 30.08-78.6C1152 751.28 1178.44 746.54 1204 742c18-3.22 36.55-6.56 51.91-15.54a3.43 3.43 0 013.46 5.92c-16.41 9.59-35.6 13-54.16 16.37-25.55 4.58-49.68 8.91-67 27.93-19.87 21.79-24 47.66-28.38 75.06-1.18 7.43-2.41 15.12-4 22.79q-2.11 10.38-4.12 20.69c-6 30.2-12.11 61.44-22.06 91.84-6.82 20.88-16 41.09-24.87 60.63l-.19.43a60.52 60.52 0 01-4.27 7.19c-2.13 3.27-5 7.63-5.56 10.1 1.4 1.86 6.28 6.23 8.47 8.18 1.73 1.55 3.11 2.8 3.6 3.35l3.29 3.66c10.22 11.31 22.94 25.38 24.93 39.64a3.44 3.44 0 01-2.92 3.87zM1609.56 1247.74c-14.13 0-25-7.69-35.61-15.16-1.84-1.29-3.68-2.6-5.56-3.87-48-32.59-64.18-87.16-79.79-139.93-1.54-5.19-3.07-10.37-4.63-15.51-5.85-19.3-12.43-38.67-18.15-55.3-1.73-5-4.8-11.66-8.06-18.68-11.23-24.26-25.22-54.45-12.61-73a3.43 3.43 0 015.68 3.85c-10.44 15.39 3.2 44.82 13.15 66.32 3.48 7.49 6.48 14 8.32 19.33 5.74 16.7 12.35 36.13 18.23 55.54q2.34 7.74 4.64 15.55c15.27 51.62 31.06 105 77.07 136.2 1.91 1.3 3.79 2.63 5.66 4 11.8 8.32 22.91 16.16 38.13 13.28 8.76-1.68 14.29-11.55 18.72-19.49l.84-1.49c15-26.7 27.59-51.23 28.85-81 1.81-43.39-9.72-87.54-20.86-130.23-6.55-25.09-13.33-51-17.25-76.4-.94-6.07-1.82-12.15-2.7-18.23-6.19-42.6-12-82.84-35.63-118.36-13.22-19.9-39.94-26.75-65.8-33.38-18.4-4.72-37.42-9.59-51.6-19.21a3.43 3.43 0 013.85-5.67c13.19 8.94 30.8 13.46 49.46 18.24 27.1 7 55.13 14.14 69.81 36.23 24.44 36.8 30.66 79.68 36.69 121.16.88 6.06 1.76 12.13 2.7 18.18 3.86 25 10.6 50.79 17.1 75.71 11.28 43.18 22.93 87.83 21.07 132.25-1.31 31.29-14.8 57.65-29.72 84.12l-.83 1.48c-4.86 8.69-11.52 20.59-23.41 22.87A40.88 40.88 0 011609.56 1247.74z"></path><path fill="#571519" d="M1452,932.41a37.71,37.71,0,0,1-5.16-.33,3.43,3.43,0,0,1,.91-6.79c24.85,3.3,67.91-24.75,78.41-46.26a3.43,3.43,0,1,1,6.16,3C1521.25,904.75,1480.47,932.41,1452,932.41Z"></path><path fill="#571519" d="M1649.82,1140a3.43,3.43,0,0,1-3.42-3.27c-.19-3.93-.2-8-.21-12,0-10.22-.08-20.8-3-30.19-5.73-18.26-18-34.07-29.88-49.35-1.75-2.25-3.49-4.49-5.2-6.72-19.71-25.78-34.89-55.21-49.57-83.67l-4.81-9.32c-5.52-10.65-9-21.79-12.46-32.57-2-6.25-4-12.72-6.44-19l-.58-1.53c-2.52-6.7-4-9.33-8.17-8.9a3.43,3.43,0,0,1-.77-6.81c9.92-1.15,13.07,7.22,15.36,13.3l.56,1.48c2.48,6.47,4.56,13,6.58,19.39,3.47,11,6.76,21.36,12,31.49l4.82,9.33c14.54,28.19,29.57,57.35,48.92,82.65,1.69,2.22,3.42,4.44,5.17,6.68,12.24,15.76,24.91,32.06,31,51.5,3.26,10.38,3.3,21.48,3.34,32.21,0,4,0,7.9.21,11.74A3.43,3.43,0,0,1,1650,1140Z"></path><path fill="#571519" d="M1447.23 932.71a3.41 3.41 0 01-3.4-3c-.38-3.3-3-9.47-5.29-14.91-4.3-10.15-6.65-16.08-5.1-19.84 1-2.46 3.68-3.21 11.56-5.42s20-5.61 30-11.33c9.73-5.52 18.82-14.33 25.45-20.76 6.48-6.28 8.87-8.62 11.72-8.36a4.48 4.48 0 012.86 1.69 3.17 3.17 0 01.36.65c.44 1.08 10.85 26.57 13.27 33.61a3.43 3.43 0 11-6.48 2.23c-1.84-5.36-8.76-22.47-11.75-29.83-1.47 1.32-3.41 3.19-5.21 4.93-6.9 6.69-16.35 15.85-26.84 21.8-10.81 6.14-23.3 9.65-31.57 12-2.65.74-5.59 1.57-7.07 2.13.3 2.61 3.13 9.29 5.06 13.86 2.73 6.44 5.3 12.52 5.79 16.81a3.43 3.43 0 01-3 3.79zM924.16 1089a3.43 3.43 0 010-6.86c19.56 0 52-6.46 78.05-11.61 26.53-5.25 36.12-7 39.64-5.69a3.43 3.43 0 01-2.27 6.47c-3.06-.65-20.57 2.88-36 5.94-26.35 5.22-59.14 11.71-79.37 11.75zM969.71 1177.07a3.43 3.43 0 110-6.85c23.24-.07 89.12-6.23 133.54-24.08 15.89-6.39 23.39-16 32.88-28.25l3.28-4.2a3.42 3.42 0 115.38 4.24l-3.25 4.17c-9.72 12.51-18.12 23.32-35.73 30.4-41.33 16.61-105.64 24.48-136.08 24.57zM1129.64 1658.59a3.43 3.43 0 01-3.4-3c-4-35.92-6.33-143.57-6.82-178.44a3.44 3.44 0 013.38-3.48h0a3.43 3.43 0 013.43 3.38c.48 34.79 2.76 142.12 6.77 177.77a3.42 3.42 0 01-3 3.79z"></path><path fill="#571519" d="M1124.8 1397.19h-.21a3.41 3.41 0 01-3.21-3.62q.61-10.45 1.38-20.38c2.56-33.62 6.24-67 9.79-99.22 1.53-13.82 3.06-27.71 4.53-41.75 6.12-58.72 3.86-107.84 1.24-164.73q-.52-11.65-1.07-23.76c-1.21-28.22-.48-53.65.16-76.07.26-9.11.51-17.91.63-26.49.48-34.43-3.44-55.4-15-80.14a3.43 3.43 0 016.22-2.89c12 25.78 16.11 47.53 15.61 83.13-.11 8.6-.37 17.44-.63 26.58-.64 22.31-1.36 47.61-.16 75.59q.53 12.1 1.07 23.74c2.63 57.16 4.9 106.52-1.28 165.75-1.46 14.06-3 28-4.52 41.8-3.56 32.19-7.23 65.48-9.77 99q-.76 9.87-1.38 20.27A3.43 3.43 0 011124.8 1397.19zM1539.91 1696.84a3.44 3.44 0 01-3.43-3.38c-.24-17-4.34-151.08-6.56-177.33a3.43 3.43 0 016.83-.58c2.22 26.37 6.34 160.82 6.58 177.81a3.43 3.43 0 01-3.37 3.48zM1524.45 1435a3.42 3.42 0 01-3.39-3c-4.61-37.16-10-73.41-15.12-102.08-6.71-37.42-7-71.06 9.62-161a3.43 3.43 0 016.74 1.24c-16.41 88.9-16.17 122-9.61 158.55 5.17 28.79 10.55 65.17 15.17 102.45a3.43 3.43 0 01-3 3.82z"></path><path fill="#571519" d="M1367.54,1417.78c-98.87,0-198.33-27.82-240.64-62.77a3.43,3.43,0,1,1,4.37-5.28c64,52.89,262,89,385.1,33.7a3.43,3.43,0,0,1,2.81,6.25C1475,1409.53,1421.38,1417.78,1367.54,1417.78Z"></path><path fill="#571519" d="M1271.18 1405.33a3.42 3.42 0 01-3.42-3.38c-.08-5.44 0-12.52.1-21a3.43 3.43 0 016.85.11c-.14 8.46-.18 15.47-.1 20.84a3.44 3.44 0 01-3.38 3.48zM773.17 1085c-10.48 0-24.34-1.29-33.76-7.06-4.85-3-7.82-7-8.38-11.5-.36-2.83.12-7.12 4.41-11.54a80.15 80.15 0 017-6.14c1-.79 1.94-1.57 2.88-2.36a3.42 3.42 0 114.43 5.22c-1 .83-2 1.64-3 2.46a74.23 74.23 0 00-6.38 5.6c-1.93 2-2.78 4-2.53 5.91.29 2.3 2.17 4.67 5.16 6.51 8.47 5.18 21.85 6.13 31.55 6 3 0 4.27-.48 4.74-.73-.57-1.94-5.56-6.52-10.35-8.27l-.75-.28c-4.17-1.54-11.94-4.39-15.34-4.54a3.43 3.43 0 01.3-6.85c4.13.18 10.86 2.55 17.4 5l.75.28c5.94 2.18 16 9.42 14.81 16.09-.7 4-4.56 6.13-11.49 6.21z"></path><path fill="#571519" d="M774.51,1105.53c-3.38,0-6.73-.1-10-.2-3.06-.09-6-.18-8.9-.18a16,16,0,0,1-15.09-11c-1.74-5.64.48-11.25,6-15a3.43,3.43,0,0,1,3.87,5.66c-3,2-4.12,4.56-3.27,7.3a9.29,9.29,0,0,0,8.55,6.12c2.92,0,6,.1,9.09.19,11.72.35,23.82.72,33.63-3.4a7.61,7.61,0,0,0-1.5-2.34c-3.82-4.17-10.42-7.36-15.71-7.6a3.43,3.43,0,0,1-3.28-3.57,3.38,3.38,0,0,1,3.58-3.27c7,.31,15.46,4.34,20.46,9.82,1.25,1.35,4.06,4.92,3.24,8.68a6.41,6.41,0,0,1-4,4.53C793,1104.81,783.62,1105.53,774.51,1105.53Z"></path><path fill="#571519" d="M770.32,1123a39.68,39.68,0,0,1-13.81-2.13c-5.11-1.89-8.57-5.22-9.49-9.13-.56-2.39-.45-6.07,3.28-10a3.43,3.43,0,1,1,5,4.69c-1.32,1.41-1.86,2.69-1.6,3.79.37,1.58,2.36,3.22,5.19,4.28,9.3,3.45,23.09.89,33.15-1l1.77-.33c8.07-1.47,7.79-4,7.65-5.19-.08-.7-.58-1.17-1.89-2.28a15,15,0,0,1-3-3.08,3.43,3.43,0,1,1,5.66-3.86,9.72,9.72,0,0,0,1.74,1.69c1.65,1.39,3.9,3.28,4.3,6.75.52,4.6-1.36,10.55-13.22,12.71l-1.76.33C786.56,1121.44,778.28,1123,770.32,1123Z"></path><path fill="#571519" d="M773 1142.46a25 25 0 01-5.73-.53c-8.07-2-11-10.52-11.94-14.1-.53-2.13-1.56-6.93-1.89-8.91a3.43 3.43 0 116.77-1.11c.29 1.81 1.28 6.38 1.77 8.35s2.35 8 6.93 9.11c5.29 1.31 23.91-1 33-6.86 1.74-1.12 3.88-2.86 4.26-4.86.11-.62.15-.82-2.15-2.36a15.59 15.59 0 01-3.53-3 3.43 3.43 0 015.31-4.33 10.62 10.62 0 002 1.59c2.27 1.51 6.06 4 5.08 9.31-.67 3.53-3.12 6.68-7.29 9.36C797.13 1139.58 782.28 1142.46 773 1142.46zM1279.29 1679l-.42 0a3.43 3.43 0 01-3-3.82c2.71-21.86-14.4-140-26.18-150.19a3.43 3.43 0 014.47-5.2c15.81 13.61 30.83 137.56 28.52 156.23A3.44 3.44 0 011279.29 1679z"></path><path fill="#fff" fill-rule="evenodd" d="M1268.81,644.68c2.77-.1,46-.18,46.35,2.93.76,6.13-5,23.29-24.92,21.86C1269.66,668,1265.56,644.79,1268.81,644.68Z"></path><path fill="#571519" d="M1292.55 673q-1.23 0-2.55-.09c-18.18-1.32-25.76-17.87-25.61-26 .09-5.19 3.59-5.59 4.29-5.61h0c1.44 0 13.12-.09 24.3.26 22.82.73 25.14 2.13 25.58 5.67.59 4.74-1.62 12.48-7 18.1C1308.18 668.88 1302.17 673 1292.55 673zm-21.25-24.92a22.24 22.24 0 004 9.64 20 20 0 0015.16 8.35c6.79.49 12.22-1.36 16.15-5.5a19.56 19.56 0 005.11-10.8C1305 648.35 1280.16 648 1271.3 648.06zM976.64 1234.1a3.46 3.46 0 01-1.06-.17l-153.72-49.85c-6.83-.49-13.27-9-14.5-15l-14-30.13a3.42 3.42 0 116.21-2.89l14.17 30.53a3.14 3.14 0 01.28.9c.62 3.91 5.67 9.73 8.43 9.73a3.46 3.46 0 011.06.17l153.59 49.81a5.72 5.72 0 005.18-4.94c-8.91-16.87-145-274.56-147.87-279.8-3.09-5.67-4.85-8.34-7.62-8.34a3.39 3.39 0 01-1-.17l-153.6-49.82a5.74 5.74 0 00-5.18 4.93l90.87 168.25a3.43 3.43 0 11-6 3.26L660.49 891.48a3.43 3.43 0 01-.41-1.63 12.58 12.58 0 0112.56-12.57 3.46 3.46 0 011.06.17l153.7 49.84c6.74.34 10.09 6.48 13.05 11.91s142.42 269.49 148.36 280.73a3.41 3.41 0 01.39 1.6A12.58 12.58 0 01976.64 1234.1z"></path><path fill="#571519" d="M986.75 1226.5a3.43 3.43 0 01-2.91-5.23 17.29 17.29 0 002.46-6.48c-8.87-16.83-143.9-273-146.76-278.25-3.09-5.67-4.85-8.34-7.62-8.34a3.46 3.46 0 01-1.06-.17L677.25 878.21c-3.27.15-10.87 1.82-11.47 8.07a3.43 3.43 0 01-6.82-.65c1-10.49 11.78-14.29 18.79-14.29a3.46 3.46 0 011.06.17l153.7 49.84c6.74.34 10.09 6.48 13 11.91s141.36 268 147.25 279.18a3.41 3.41 0 01.39 1.6 22.24 22.24 0 01-3.54 10.84A3.44 3.44 0 01986.75 1226.5zM1389 756.44a3.51 3.51 0 01-1.14-.2l-47.42-16.75a3.37 3.37 0 01-1.52-1.06 17 17 0 01-4.16-12.34 3.55 3.55 0 01.46-1.42l4.85-8.25a3.43 3.43 0 115.91 3.47l-4.42 7.53a10.22 10.22 0 002.12 6l46.46 16.41a3.43 3.43 0 01-1.14 6.66zM1455.33 703.05a3.33 3.33 0 01-1.66-.44 3.42 3.42 0 01-1.33-4.66l36.72-65.79c2.18-4.1 2.85-7.43 1.85-9.34s-4.33-2.84-6.88-3.15l-61.39-12.51c-6.61-1.75-11.92 1.61-16 10l-40.47 68.11a3.43 3.43 0 11-5.89-3.51l40.33-67.84c7.28-15.16 17.89-14.92 23.55-13.41l60.91 12.42c5.81.68 9.89 3 11.86 6.73 2.14 4.09 1.5 9.4-1.9 15.8l-36.75 65.85A3.44 3.44 0 011455.33 703.05zM1435.91 898.64a3.45 3.45 0 01-3.26-2.35c-2.11-6.35 5.12-11.06 8.6-13.32l.73-.48a3.43 3.43 0 013.8 5.71l-.79.52c-5.82 3.78-5.94 5.09-5.83 5.4a3.44 3.44 0 01-3.25 4.52zM1511.47 855.05a3.42 3.42 0 01-3.09-1.95c-.14-.27-.64-.39-.93-.44a6.26 6.26 0 00-4.58 1.26 3.43 3.43 0 01-4.88-4.82 12.9 12.9 0 0110.59-3.2 7.75 7.75 0 016 4.24 3.43 3.43 0 01-3.08 4.91zM1310.1 857.68a35.36 35.36 0 01-5.3-.53c-.77-.12-1.5-.24-2.15-.3-.84-.08-1.73-.14-2.64-.2-4.47-.3-9.53-.63-13.56-3.45-6.75-4.73-4.74-17.75-3.27-27.26.35-2.26.66-4.23.74-5.61l.06-1.14c.24-5.69.82-12 4.72-14.8a6.92 6.92 0 016.23-.94c2.36.68 6.33.6 10.16.52 7-.13 14.14-.28 18.43 3.37 6.55 5.58 2.94 17-.24 27a57.75 57.75 0 00-2.48 9.34l0 .6c-.33 3.49-.86 9.33-4.71 11.84A10.6 10.6 0 011310.1 857.68zM1292.67 810h0c-.39.27-1.49 1.77-1.81 9.51l-.06 1.29c-.1 1.53-.43 3.71-.82 6.22-.84 5.48-2.83 18.31.43 20.6 2.46 1.72 6.33 2 10.08 2.22 1 .07 1.94.13 2.84.22s1.63.2 2.54.34c2.1.32 5.26.81 6.45 0 .49-.32 1.17-1.75 1.63-6.73l.06-.63c.27-2.87 1.43-6.52 2.77-10.75 2.15-6.81 5.41-17.1 2.32-19.73-2.3-2-8.71-1.84-13.85-1.74-4.53.09-8.83.18-12.18-.79h0A1.54 1.54 0 001292.67 810z"></path><path fill="#571519" d="M1271.54 1381.64a4 4 0 01-1-.12c-6.73-1.68-28.49-37.94-28.49-53.72 0-106.39 35.19-429.62 38-447.55a198.39 198.39 0 017.07-28.77 3.43 3.43 0 016.5 2.17 194.73 194.73 0 00-6.79 27.64c-3 19.16-37.87 344.16-37.87 446.51 0 12.61 16.73 39.77 22.6 46.14 6.23-7.07 24.92-40.38 25.09-47.15l2-78c3.28-125.36 8.78-335.16 9.89-366.82.34-10-1.27-24.77-1.28-24.92a3.43 3.43 0 116.81-.75c.07.63 1.68 15.45 1.32 25.91-1.11 31.63-6.6 241.42-9.89 366.76l-2 78c-.24 9.19-22.31 48.48-29 53.54A5 5 0 011271.54 1381.64zm1.26-6.54h0zM1293.53 808.61c-4.58-7.25-9.22-14.59-10.93-23.51a3.43 3.43 0 116.73-1.3c1.47 7.66 5.56 14.14 9.9 21zM1286.61 821.05a3.45 3.45 0 01-2.4-1c-6.16-6.05-13.57-17.67-14.78-25.91a3.43 3.43 0 016.78-1c.93 6.33 7.53 16.84 12.8 22a3.43 3.43 0 01-2.4 5.88zM1320.06 811a3.43 3.43 0 01-1.12-6.67c2-.71 3.2-2.21 4.91-4.62a22 22 0 014.51-5.08 3.42 3.42 0 114.16 5.44 16.43 16.43 0 00-3.08 3.61c-1.8 2.53-4 5.67-8.26 7.13A3.38 3.38 0 011320.06 811zM1323.35 828.29a3.43 3.43 0 01-.39-6.84c5.7-.64 15.87-8.15 16.55-13.24a3.42 3.42 0 116.79.9c-1.22 9.14-14.73 18.27-22.56 19.15z"></path><path fill="#c9c9c9" fill-rule="evenodd" d="M712.79,892.47l-15.85-28.59s22.73,5.43,42.71,12.06,37.2,14.46,37.2,14.46l9,26.27Z"></path><path fill="#571519" d="M785.87,920.1a3.59,3.59,0,0,1-1.08-.17l-73.08-24.21a3.39,3.39,0,0,1-1.92-1.59L694,865.54a3.42,3.42,0,0,1,3.79-5c.23.05,23.1,5.53,43,12.13s37.36,14.53,37.54,14.61a3.42,3.42,0,0,1,1.82,2l9,26.27a3.44,3.44,0,0,1-3.24,4.54Zm-70.73-30.46,65.24,21.61-6.29-18.32c-4.4-1.95-19.11-8.29-35.52-13.74-12.61-4.19-26.47-7.92-34.8-10.07Z"></path></g><g data-name="Ñëîé 3"><path d="M545.16 389.84l905.29 1037.78 289.06 27.11L544.58 247.4zM773.39 166.25L1986.14 1478.18l58.48 6.35 1.77-184.37L922.48 137.79a364 364 0 00-71.84 2.71C814.92 145.6 773.39 166.25 773.39 166.25z" style="isolation:isolate" fill="#fff" fill-rule="evenodd" opacity=".3"></path></g><g data-name="Ñëîé 4"><path fill="#4b7399" d="M462.6 1432.24a3.42 3.42 0 01-3.42-3.42V336.07a3.43 3.43 0 016.85 0V1428.82A3.42 3.42 0 01462.6 1432.24zM526.11 1477.72a3.43 3.43 0 01-3.43-3.43V262.65a3.43 3.43 0 016.86 0V1474.29A3.43 3.43 0 01526.11 1477.72zM544.69 1345.7a3.43 3.43 0 01-3.42-3.43V244.42a3.43 3.43 0 016.85 0V1342.27A3.43 3.43 0 01544.69 1345.7zM544.69 1487.86a3.43 3.43 0 01-3.42-3.43V1420.9a3.43 3.43 0 016.85 0v63.53A3.43 3.43 0 01544.69 1487.86zM2045.57 1651.33h0a3.43 3.43 0 01-3.42-3.43l1.41-1324.22a3.42 3.42 0 013.43-3.42h0a3.42 3.42 0 013.42 3.43L2049 1647.9A3.42 3.42 0 012045.57 1651.33zM2109.07 1636.89a3.44 3.44 0 01-3.43-3.43l0-1264.85a3.43 3.43 0 016.85 0l0 1264.85A3.44 3.44 0 012109.07 1636.89zM2127.66 1493.54a3.42 3.42 0 01-3.43-3.43V383.42a3.43 3.43 0 116.85 0V1490.11A3.42 3.42 0 012127.66 1493.54zM2127.66 1631.76a3.42 3.42 0 01-3.43-3.43v-56.64a3.43 3.43 0 116.85 0v56.64A3.42 3.42 0 012127.66 1631.76z"></path><path fill="#4b7399" d="M2251.31 1583.71H2251l-139.1-13.2a3.43 3.43 0 11.65-6.83l139.11 13.2a3.43 3.43 0 01-.33 6.84zM2042.42 1563.89h-.34L528.46 1420.23a3.43 3.43 0 01.65-6.83l1513.63 143.65a3.43 3.43 0 01-.32 6.84zM458.81 1413.6h-.33l-21.55-2a3.43 3.43 0 01-3.09-3.74 3.48 3.48 0 013.74-3.09l21.55 2a3.43 3.43 0 01-.32 6.84zM2322.34 1542.92H2322l-210.42-20a3.43 3.43 0 11.65-6.82l210.42 20a3.43 3.43 0 01-.32 6.84zM2042.33 1516.34H2042L527.84 1372.63a3.43 3.43 0 01-3.09-3.74 3.47 3.47 0 013.73-3.09l1514.17 143.7a3.43 3.43 0 01-.32 6.84zM459.9 1366.17l-.33 0-75.91-7.2a3.43 3.43 0 01-3.09-3.74 3.48 3.48 0 013.74-3.09l75.91 7.21a3.43 3.43 0 01-.32 6.84z"></path><path fill="#4b7399" d="M2109.31 1522a3.43 3.43 0 01-2.78-5.42l18.38-25.79a3.41 3.41 0 013.11-1.42l225.22 21.37a3.43 3.43 0 01-.65 6.83l-223.25-21.19-17.23 24.18A3.43 3.43 0 012109.31 1522zM2041.73 1488.05h-.33L547.26 1346.23l-17.46 24.34a3.43 3.43 0 01-5.57-4l18.6-25.94a3.45 3.45 0 013.11-1.41l1496.11 142a3.43 3.43 0 01-.32 6.84zM458.87 1337.83h-.33l-101.63-9.65a3.43 3.43 0 01-3.09-3.74 3.47 3.47 0 013.74-3.09L459.18 1331a3.43 3.43 0 01-.31 6.84z"></path></g></svg>